<svg xmlns="http://www.w3.org/2000/svg" viewBox="0 0 64 58">
  <switch>
    <g>
      <linearGradient id="a" gradientUnits="userSpaceOnUse" x1="32" y1="58" x2="32" y2="0">
        <stop offset="0" stop-color="#ccac41"/>
        <stop offset=".21" stop-color="#ffff8b"/>
        <stop offset=".57" stop-color="#c29c2f"/>
        <stop offset=".67" stop-color="#ad871f"/>
        <stop offset=".82" stop-color="#876001"/>
        <stop offset=".84" stop-color="#8f6808"/>
        <stop offset=".87" stop-color="#a47e1b"/>
        <stop offset=".91" stop-color="#c6a23a"/>
        <stop offset=".92" stop-color="#d8b54a"/>
        <stop offset="1" stop-color="#f7f498"/>
      </linearGradient>
      <path fill="url(#a)" d="M8.1 58V30.7H0c.4-.5.7-.8 1-1 3.2-3 6.4-6.1 9.6-9.1.3-.3.5-.7.5-1.1V6v-.9h8.3v7.1C23.7 8 27.8 4 32 0c10.6 10.2 21.2 20.3 32 30.6h-8.1V58H8.1zM32 5.8c-6.3 6-12.4 12-18.7 17.8-1 .9-1.5 1.9-1.3 3.2.1.6 0 1.2 0 1.8V54.5h14V36.2h12v18.3h13.9c0-.2.1-.5.1-.7V25.5c0-.4-.2-.8-.4-1L35.7 9.2c-1.3-1.1-2.4-2.3-3.7-3.4z"/>
    </g>
  </switch>
</svg>
