<?xml version="1.0" encoding="utf-8"?>
<!-- Generator: Adobe Illustrator 26.4.1, SVG Export Plug-In . SVG Version: 6.00 Build 0)  -->
<svg version="1.1" id="Слой_1" xmlns="http://www.w3.org/2000/svg" xmlns:xlink="http://www.w3.org/1999/xlink" x="0px" y="0px"
	 viewBox="0 0 80 80" style="enable-background:new 0 0 80 80;" xml:space="preserve">
<style type="text/css">
	.st0{fill:url(#SVGID_1_);}
	.st1{fill:url(#SVGID_00000079472655951790187500000007589482224355227059_);}
	.st2{fill:url(#SVGID_00000107572977329634173020000004230112348342457785_);}
	.st3{fill:url(#SVGID_00000164483724679558972960000005122726183562665901_);}
	.st4{fill:url(#SVGID_00000163769361512504686950000006135484928525437598_);}
	.st5{opacity:0.37;fill:url(#SVGID_00000106840365348957675210000009247932201641073562_);}
	.st6{fill:url(#SVGID_00000067921545887432684420000016982193534206568619_);}
</style>
<g>
	<g>
		<g>
			<linearGradient id="SVGID_1_" gradientUnits="userSpaceOnUse" x1="-0.2542" y1="40.0879" x2="79.7458" y2="40.0879">
				<stop  offset="0" style="stop-color:#CCAC41"/>
				<stop  offset="0.2081" style="stop-color:#FFFF8B"/>
				<stop  offset="0.5656" style="stop-color:#C29C2F"/>
				<stop  offset="0.6689" style="stop-color:#AD871F"/>
				<stop  offset="0.8238" style="stop-color:#876001"/>
				<stop  offset="0.8422" style="stop-color:#8F6808"/>
				<stop  offset="0.8709" style="stop-color:#A47E1B"/>
				<stop  offset="0.906" style="stop-color:#C6A23A"/>
				<stop  offset="0.9223" style="stop-color:#D8B54A"/>
				<stop  offset="1" style="stop-color:#F7F498"/>
			</linearGradient>
			<path class="st0" d="M79.7,75c0,2.8-2.4,5.1-5.3,5.1H5c-2.9,0-5.3-2.3-5.3-5.1V5.2c0-2.8,2.4-5.1,5.3-5.1h69.4
				c2.9,0,5.3,2.3,5.3,5.1V75z"/>
			
				<linearGradient id="SVGID_00000132801806657947581720000017864742230917431172_" gradientUnits="userSpaceOnUse" x1="39.7458" y1="0.5297" x2="39.7458" y2="78.7058">
				<stop  offset="0" style="stop-color:#CCAC41"/>
				<stop  offset="0.2081" style="stop-color:#FFFF8B"/>
				<stop  offset="0.5656" style="stop-color:#C29C2F"/>
				<stop  offset="0.6689" style="stop-color:#AD871F"/>
				<stop  offset="0.8238" style="stop-color:#876001"/>
				<stop  offset="0.8422" style="stop-color:#8F6808"/>
				<stop  offset="0.8709" style="stop-color:#A47E1B"/>
				<stop  offset="0.906" style="stop-color:#C6A23A"/>
				<stop  offset="0.9223" style="stop-color:#D8B54A"/>
				<stop  offset="1" style="stop-color:#F7F498"/>
			</linearGradient>
			<path style="fill:url(#SVGID_00000132801806657947581720000017864742230917431172_);" d="M79.1,74.3c0,2.8-2.4,5.1-5.3,5.1H5.7
				c-2.9,0-5.3-2.3-5.3-5.1V5.8c0-2.8,2.4-5.1,5.3-5.1h68.1c2.9,0,5.3,2.3,5.3,5.1V74.3z"/>
			
				<linearGradient id="SVGID_00000029733567016207126250000007136949983764860322_" gradientUnits="userSpaceOnUse" x1="4.0277" y1="40.0879" x2="75.0044" y2="40.0879">
				<stop  offset="0" style="stop-color:#CCAC41"/>
				<stop  offset="0.2081" style="stop-color:#FFFF8B"/>
				<stop  offset="0.5656" style="stop-color:#C29C2F"/>
				<stop  offset="0.6689" style="stop-color:#AD871F"/>
				<stop  offset="0.8238" style="stop-color:#876001"/>
				<stop  offset="0.8422" style="stop-color:#8F6808"/>
				<stop  offset="0.8709" style="stop-color:#A47E1B"/>
				<stop  offset="0.906" style="stop-color:#C6A23A"/>
				<stop  offset="0.9223" style="stop-color:#D8B54A"/>
				<stop  offset="1" style="stop-color:#F7F498"/>
			</linearGradient>
			<path style="fill:url(#SVGID_00000029733567016207126250000007136949983764860322_);" d="M75.6,70.6c0,3-2.6,5.5-5.7,5.5H9.6
				c-3.2,0-5.7-2.5-5.7-5.5V9.6c0-3,2.6-5.5,5.7-5.5h60.3c3.2,0,5.7,2.5,5.7,5.5V70.6z"/>
			
				<linearGradient id="SVGID_00000005985039616486880980000013580542557414797719_" gradientUnits="userSpaceOnUse" x1="4.6388" y1="40.0879" x2="74.8529" y2="40.0879">
				<stop  offset="0" style="stop-color:#32BDF9"/>
				<stop  offset="0.2386" style="stop-color:#30BAF6"/>
				<stop  offset="0.4418" style="stop-color:#2AAFED"/>
				<stop  offset="0.6319" style="stop-color:#219EDD"/>
				<stop  offset="0.8142" style="stop-color:#1385C7"/>
				<stop  offset="0.9893" style="stop-color:#0165AB"/>
				<stop  offset="1" style="stop-color:#0063A9"/>
			</linearGradient>
			<path style="fill:url(#SVGID_00000005985039616486880980000013580542557414797719_);" d="M74.9,69.9c0,3-2.6,5.5-5.7,5.5H10.4
				c-3.2,0-5.7-2.5-5.7-5.5V10.3c0-3,2.6-5.5,5.7-5.5h58.8c3.2,0,5.7,2.5,5.7,5.5V69.9z"/>
			
				<radialGradient id="SVGID_00000150799536877542667920000000800719026635752620_" cx="34.7083" cy="29.7269" r="34.1918" gradientTransform="matrix(1.0305 0 0 0.9928 3.9791 10.5765)" gradientUnits="userSpaceOnUse">
				<stop  offset="0" style="stop-color:#012B90"/>
				<stop  offset="1" style="stop-color:#01194E"/>
			</radialGradient>
			<path style="fill:url(#SVGID_00000150799536877542667920000000800719026635752620_);" d="M74.2,69.3c0,3-2.5,5.4-5.6,5.4H10.9
				c-3.1,0-5.6-2.4-5.6-5.4V10.8c0-3,2.5-5.4,5.6-5.4h57.7c3.1,0,5.6,2.4,5.6,5.4V69.3z"/>
		</g>
		
			<radialGradient id="SVGID_00000019656152436343367340000016756095809916382632_" cx="117.7441" cy="64.3113" r="32.2733" gradientTransform="matrix(1.0498 0 0 0.9446 -83.8605 -15.9356)" gradientUnits="userSpaceOnUse">
			<stop  offset="0" style="stop-color:#112772"/>
			<stop  offset="0.2958" style="stop-color:#10266F"/>
			<stop  offset="0.5476" style="stop-color:#0F2264"/>
			<stop  offset="0.7824" style="stop-color:#0C1D53"/>
			<stop  offset="1" style="stop-color:#08153B"/>
		</radialGradient>
		<path style="opacity:0.37;fill:url(#SVGID_00000019656152436343367340000016756095809916382632_);" d="M74.2,69c0,3-2,5.8-5.9,5.8
			H11.2C8,74.8,6,73,5.4,70.3c-0.1-0.6-0.1-8.9-0.1-9.5c0,0,0.2-15.7,1.4-15.7c44.7,0,67.5-33.2,67.5-30V69z"/>
	</g>
	
		<linearGradient id="SVGID_00000065067275695230927940000016637890600139060621_" gradientUnits="userSpaceOnUse" x1="33.0181" y1="34.2852" x2="52.358" y2="47.8272">
		<stop  offset="0" style="stop-color:#CCAC41"/>
		<stop  offset="0.2081" style="stop-color:#FFFF8B"/>
		<stop  offset="0.5656" style="stop-color:#C29C2F"/>
		<stop  offset="0.6689" style="stop-color:#AD871F"/>
		<stop  offset="0.8238" style="stop-color:#876001"/>
		<stop  offset="0.8422" style="stop-color:#8F6808"/>
		<stop  offset="0.8709" style="stop-color:#A47E1B"/>
		<stop  offset="0.906" style="stop-color:#C6A23A"/>
		<stop  offset="0.9223" style="stop-color:#D8B54A"/>
		<stop  offset="1" style="stop-color:#F7F498"/>
	</linearGradient>
	<path style="fill:url(#SVGID_00000065067275695230927940000016637890600139060621_);" d="M47.9,53.1c-0.2,0.6-0.3,1.2-0.5,1.7
		c0,0.1-0.2,0.3-0.3,0.3c-1.7,0.5-3.4,1.1-5.2,1.4c-1.7,0.3-3.5,0.3-5.1-0.4c-2-0.7-3.2-2.3-3.1-4.1c0.1-2,0.8-3.8,1.4-5.7
		c0.6-1.8,1.1-3.6,1.6-5.3c0.2-0.6,0.1-1.2,0.1-1.8c-0.1-0.8-0.6-1.2-1.5-1.4c-1.3-0.2-2.6,0-3.8,0.4c-0.1,0-0.2,0.1-0.5,0.1
		c0.2-0.6,0.3-1.1,0.5-1.7c0-0.1,0.2-0.2,0.3-0.3c2.2-0.7,4.5-1.6,6.9-1.6c1.9,0,3.8,0.2,5.2,1.5c1,0.9,1.3,2,1.3,3.2
		c0,2.2-1,4.3-1.6,6.4c-0.5,1.8-1.1,3.7-1.5,5.5c-0.3,1.4,0.4,2.2,2.1,2.3c0.9,0.1,1.8-0.1,2.7-0.2C47.1,53.4,47.5,53.2,47.9,53.1z
		 M48.2,28.6c0.9-2-0.4-4.2-2.8-4.9c-2.6-0.8-5.6,0.3-6.5,2.3c-1.1,2.6,1.3,5.2,4.7,5.2C45.7,31.2,47.6,30.1,48.2,28.6z"/>
</g>
</svg>
