<svg xmlns="http://www.w3.org/2000/svg" viewBox="0 0 148 136">
  <switch>
    <g>
      <linearGradient id="a" gradientUnits="userSpaceOnUse" x1="0" y1="68" x2="148" y2="68">
        <stop offset="0" stop-color="#ccac41"/>
        <stop offset=".21" stop-color="#ffff8b"/>
        <stop offset=".57" stop-color="#c29c2f"/>
        <stop offset=".67" stop-color="#ad871f"/>
        <stop offset=".82" stop-color="#876001"/>
        <stop offset=".84" stop-color="#8f6808"/>
        <stop offset=".87" stop-color="#a47e1b"/>
        <stop offset=".91" stop-color="#c6a23a"/>
        <stop offset=".92" stop-color="#d8b54a"/>
        <stop offset="1" stop-color="#f7f498"/>
      </linearGradient>
      <path fill="url(#a)" d="M148 128.3c0 4.3-3.7 7.7-8.2 7.7H8.2c-4.6 0-8.2-3.5-8.2-7.7V7.7C0 3.5 3.7 0 8.2 0h131.5c4.6 0 8.2 3.5 8.2 7.7v120.6z"/>
      <linearGradient id="b" gradientUnits="userSpaceOnUse" x1="74" y1=".63" x2="74" y2="133.77">
        <stop offset="0" stop-color="#ccac41"/>
        <stop offset=".21" stop-color="#ffff8b"/>
        <stop offset=".57" stop-color="#c29c2f"/>
        <stop offset=".67" stop-color="#ad871f"/>
        <stop offset=".82" stop-color="#876001"/>
        <stop offset=".84" stop-color="#8f6808"/>
        <stop offset=".87" stop-color="#a47e1b"/>
        <stop offset=".91" stop-color="#c6a23a"/>
        <stop offset=".92" stop-color="#d8b54a"/>
        <stop offset="1" stop-color="#f7f498"/>
      </linearGradient>
      <path fill="url(#b)" d="M146.9 127.3c0 4.3-3.7 7.7-8.2 7.7H9.3c-4.6 0-8.2-3.5-8.2-7.7V8.7C1.1 4.5 4.8 1 9.3 1h129.4c4.6 0 8.2 3.5 8.2 7.7v118.6z"/>
      <radialGradient id="c" cx="74" cy="68" r="65.02" gradientTransform="matrix(.9969 0 0 .9971 .23 .2)" gradientUnits="userSpaceOnUse">
        <stop offset="0" stop-color="#012b90"/>
        <stop offset="1" stop-color="#01194e"/>
      </radialGradient>
      <path fill="url(#c)" d="M141.6 121.6c0 4.6-4 8.4-8.9 8.4H15.3c-4.9 0-8.9-3.8-8.9-8.4V14.4c0-4.6 4-8.4 8.9-8.4h117.3c4.9 0 8.9 3.8 8.9 8.4v107.2z"/>
      <radialGradient id="d" cx="135.05" cy="2.66" r="62.21" gradientTransform="matrix(1.0082 0 0 .885 -62.16 72.9)" gradientUnits="userSpaceOnUse">
        <stop offset="0" stop-color="#112772"/>
        <stop offset=".3" stop-color="#10266f"/>
        <stop offset=".55" stop-color="#0f2264"/>
        <stop offset=".78" stop-color="#0c1d53"/>
        <stop offset="1" stop-color="#08153b"/>
      </radialGradient>
      <path opacity=".37" fill="url(#d)" d="M139.4 119.1c0 4.6-3.1 8.8-9.2 8.8H17.9c-5 0-8.2-2.7-9.1-6.8-.2-.9-.1-13.5-.1-14.5 0 0 .3-1.4 2.3-1.5C120.3 96 139.4 18 139.4 22.8v96.3z"/>
      <linearGradient id="e" gradientUnits="userSpaceOnUse" x1="41.16" y1="45.33" x2="106.3" y2="90.94">
        <stop offset="0" stop-color="#ccac41"/>
        <stop offset=".21" stop-color="#ffff8b"/>
        <stop offset=".57" stop-color="#c29c2f"/>
        <stop offset=".92" stop-color="#d3b044"/>
        <stop offset="1" stop-color="#d8b54a"/>
      </linearGradient>
      <path fill="url(#e)" d="M63.5 106.2h-.6c-3.5-.4-6.7-1.6-9.2-3.8-2.1-1.8-2.6-3.7-1.4-6.2.7-1.5.9-2.8.5-4.1-.6-2.2-2-3.4-4.1-3.5l-1.3-.1c-.1 0-.3 0-.4.1-.8.1-1.6.3-2.3.5-2.5.6-4.6-.1-6-2.2-1.7-2.4-2.6-5-2.9-7.7-.1-.9.1-1.8.3-2.4.3-1.3 1.2-2.3 2.6-2.8 1.6-.7 3-1.8 4-3.2 1.3-1.8 1.1-4.2-.3-5.9-1-1.2-2.1-2-3.2-2.5-2.2-.8-3.3-2.7-3.3-5.2 0-2.3.7-4.6 2.1-6.9.4-.7 1-1.5 1.8-2.3 1.1-1.2 2.6-1.5 4.2-1.1.3.1.5.1.8.2.8.2 1.6.5 2.3.5 1.9.2 3.6-.3 5-1.7.7-.6.9-1.6 1.2-2.8.3-1.7.3-3.3-.2-4.7-.4-1.3-.4-3.3 1.6-5.1 1.5-1.3 3.2-2.2 5.6-2.8.8-.2 1.8-.4 2.9-.6 2.4-.3 4.2.6 5.1 2.9.4.9.9 1.8 1.7 2.6 1.3 1.4 3.1 2 5.1 1.6 2.1-.4 3.8-1.7 4.7-3.7l.1-.1.3-.6c1.2-2.2 2.8-3.1 5.3-2.8 3.4.5 6.1 1.7 8.2 3.8l.2.2c1.5 1.5 1.9 3.5 1 5.6-.7 1.5-.7 3-.2 4.5a5.3 5.3 0 005.4 3.8c1.3 0 2.5-.3 3.5-.8 1.7-.8 3.7-.5 5.1.8 1.1 1.1 2 2.5 2.6 4.2.5 1.5.9 2.9 1.2 4.3.4 1.8.2 4.3-3.1 5.7-2.2 1-3.6 2.5-4.1 4.6-.7 2.8.8 5.6 3.5 6.8 2.6 1.1 4 3.3 3.6 6.1-.3 2.5-1.1 4.7-2.5 6.7-.7 1-1.6 1.8-2.6 2.3-1.4.7-2.8.8-4.4.3-1.6-.5-3.1-.6-4.6-.4a4.5 4.5 0 00-3.5 2.8c-.7 1.6-.7 3.3 0 5.2.3.8.7 1.8.5 3-.2 1.4-.9 2.5-2 3.4-2.6 2-5.6 3.1-8.7 3.4-1.1.1-2.6-.2-3.8-2-.3-.5-.6-.9-.8-1.4-1.1-2.3-2.4-3.5-4.2-4-2.2-.6-4.1 0-5.9 1.9-.6.7-1.1 1.4-1.4 2.2-1.2 2.2-2.9 3.4-5 3.4zM49.4 84.6c3.6.4 6.2 2.7 7.2 6.5.6 2.2.3 4.5-.8 6.8-.4.9-.4.9.3 1.5 2 1.6 4.3 2.6 7.1 2.9.4 0 .8 0 1.1-.8.5-1.3 1.3-2.4 2.2-3.5 2.8-3 6.2-4 9.8-3 3 .8 5.2 2.8 6.8 6.2.1.3.3.6.4.8.2.3.3.3.3.3 2.4-.2 4.6-1 6.6-2.6.3-.2.4-.4.5-.8a2 2 0 00-.3-.8c-1.2-2.9-1.2-5.8.1-8.4 1.3-2.9 3.5-4.6 6.5-5 2.1-.3 4.3-.2 6.5.5.5.2.9.1 1.4-.1.4-.2.8-.5 1.1-1 1-1.5 1.6-3.1 1.8-5 .1-.8-.1-1.4-1.2-1.9-4.6-1.9-7-6.6-5.9-11.4.8-3.3 3-5.8 6.4-7.3 1-.4.9-.6.8-1.2-.3-1.2-.6-2.5-1.1-3.9-.4-1.1-.9-1.9-1.5-2.6-.2-.2-.4-.2-.6-.1-1.6.8-3.4 1.2-5.3 1.2h-.1c-4.3 0-7.8-2.5-9.1-6.5-.8-2.5-.7-5 .3-7.4.3-.7.2-.9-.1-1.1-.1-.1-.2-.2-.2-.3a9.32 9.32 0 00-5.9-2.7c-.8-.1-.8-.1-1.2.7 0 .1-.1.1-.1.2l-.1.2c-1.4 3.2-4.2 5.4-7.7 6-3.2.6-6.5-.5-8.7-2.9-1.1-1.2-1.9-2.4-2.4-3.8-.2-.4-.3-.5-.3-.5H63.4c-.9.1-1.7.3-2.4.5-1.8.5-3 1.1-4 2-.6.5-.5.7-.4 1 .6 2.1.7 4.3.2 6.5-.3 1.6-.8 3.4-2.3 4.9a9.71 9.71 0 01-8.2 2.8c-1-.1-2-.4-2.9-.7-.2-.1-.5-.1-.7-.2h-.3c-.5.6-.9 1.1-1.2 1.6-1 1.7-1.5 3.3-1.5 4.9 0 1 .3 1.2.8 1.4 1.8.7 3.3 1.9 4.8 3.6 2.6 3 2.8 7.5.6 10.8-1.5 2.1-3.4 3.7-5.8 4.7-.1.1-.2.1-.2.1-.1.3-.2.8-.1 1.1.2 2 .9 4 2.2 5.9.4.5.7.8 1.7.5.9-.2 1.8-.4 2.6-.5.4-.1.7-.1 1.1-.2l1.9-.4.1.5zm24.5 2.2C63.5 86.8 55 78.3 55 67.9c0-5 2-9.8 5.5-13.3 3.6-3.6 8.3-5.5 13.3-5.5 10.4 0 18.9 8.5 18.9 18.8 0 5.1-2 9.9-5.5 13.4-3.5 3.6-8.2 5.5-13.3 5.5zm0-33.8c-4 0-7.7 1.5-10.5 4.4-2.8 2.8-4.4 6.5-4.4 10.5 0 8.2 6.7 14.9 14.9 15 4 0 7.8-1.5 10.6-4.4 2.8-2.8 4.4-6.6 4.4-10.6-.1-8.2-6.8-14.9-15-14.9z"/>
    </g>
  </switch>
</svg>
