<?xml version="1.0" encoding="utf-8"?>
<!-- Generator: Adobe Illustrator 22.0.0, SVG Export Plug-In . SVG Version: 6.00 Build 0)  -->
<svg version="1.1" id="Слой_1" xmlns="http://www.w3.org/2000/svg" xmlns:xlink="http://www.w3.org/1999/xlink" x="0px" y="0px"
	 viewBox="0 0 94 66" style="enable-background:new 0 0 94 66;" xml:space="preserve">
<style type="text/css">
	.st0{fill:#002E70;}
	.st1{fill:url(#SVGID_1_);}
	.st2{fill:url(#SVGID_2_);}
</style>
<g>
	<g>
		<g>
			<g>
				<path class="st0" d="M90.8,65.9H3.2c-1.7,0-3.1-1.4-3.1-3.1V3.2c0-1.7,1.4-3.1,3.1-3.1h87.6c1.7,0,3.1,1.4,3.1,3.1v59.6
					C93.9,64.5,92.5,65.9,90.8,65.9z"/>
				<linearGradient id="SVGID_1_" gradientUnits="userSpaceOnUse" x1="0" y1="33" x2="94" y2="33">
					<stop  offset="0" style="stop-color:#F3E868"/>
					<stop  offset="0.2242" style="stop-color:#D18420"/>
					<stop  offset="0.2909" style="stop-color:#FAC73B"/>
					<stop  offset="0.3314" style="stop-color:#EAAB2D"/>
					<stop  offset="0.3818" style="stop-color:#D28319"/>
					<stop  offset="0.4306" style="stop-color:#E7A632"/>
					<stop  offset="0.471" style="stop-color:#F4BC41"/>
					<stop  offset="0.497" style="stop-color:#F9C447"/>
					<stop  offset="0.6485" style="stop-color:#FFF5C3"/>
					<stop  offset="0.6697" style="stop-color:#FEF0B4"/>
					<stop  offset="0.7107" style="stop-color:#FDE18C"/>
					<stop  offset="0.7669" style="stop-color:#FACB4B"/>
					<stop  offset="0.7939" style="stop-color:#F9BF2A"/>
					<stop  offset="0.7952" style="stop-color:#F9C02C"/>
					<stop  offset="0.8207" style="stop-color:#F8D248"/>
					<stop  offset="0.8462" style="stop-color:#F7DF5C"/>
					<stop  offset="0.8717" style="stop-color:#F6E768"/>
					<stop  offset="0.897" style="stop-color:#F6EA6C"/>
					<stop  offset="1" style="stop-color:#F9F4C3"/>
				</linearGradient>
				<path class="st1" d="M90.8,66H3.2C1.4,66,0,64.6,0,62.8V3.2C0,1.4,1.4,0,3.2,0h87.6C92.6,0,94,1.4,94,3.2v59.6
					C94,64.6,92.6,66,90.8,66z M3.2,0.3c-1.6,0-2.9,1.3-2.9,2.9v59.6c0,1.6,1.3,2.9,2.9,2.9h87.6c1.6,0,2.9-1.3,2.9-2.9V3.2
					c0-1.6-1.3-2.9-2.9-2.9H3.2z"/>
			</g>
			<linearGradient id="SVGID_2_" gradientUnits="userSpaceOnUse" x1="0" y1="33" x2="94" y2="33">
				<stop  offset="0" style="stop-color:#CCAC41"/>
				<stop  offset="0.2081" style="stop-color:#FFFF8B"/>
				<stop  offset="0.5656" style="stop-color:#C29C2F"/>
				<stop  offset="0.9152" style="stop-color:#D3B044"/>
				<stop  offset="1" style="stop-color:#D8B54A"/>
			</linearGradient>
			<path class="st2" d="M90.8,66H3.2C1.4,66,0,64.6,0,62.8V3.2C0,1.4,1.4,0,3.2,0h87.6C92.6,0,94,1.4,94,3.2v59.6
				C94,64.6,92.6,66,90.8,66z M3.2,0.3c-1.6,0-2.9,1.3-2.9,2.9v59.6c0,1.6,1.3,2.9,2.9,2.9h87.6c1.6,0,2.9-1.3,2.9-2.9V3.2
				c0-1.6-1.3-2.9-2.9-2.9H3.2z"/>
		</g>
	</g>
</g>
</svg>
