<?xml version="1.0" encoding="utf-8"?>
<!-- Generator: Adobe Illustrator 22.0.0, SVG Export Plug-In . SVG Version: 6.00 Build 0)  -->
<svg version="1.1" id="Слой_1" xmlns="http://www.w3.org/2000/svg" xmlns:xlink="http://www.w3.org/1999/xlink" x="0px" y="0px"
	 viewBox="0 0 65 54" style="enable-background:new 0 0 65 54;" xml:space="preserve">
<style type="text/css">
	.st0{fill:url(#SVGID_1_);}
</style>
<linearGradient id="SVGID_1_" gradientUnits="userSpaceOnUse" x1="11.1925" y1="12.641" x2="56.2948" y2="44.222">
	<stop  offset="0" style="stop-color:#CCAC41"/>
	<stop  offset="0.2081" style="stop-color:#FFFF8B"/>
	<stop  offset="0.5656" style="stop-color:#C29C2F"/>
	<stop  offset="0.9152" style="stop-color:#D3B044"/>
	<stop  offset="1" style="stop-color:#D8B54A"/>
</linearGradient>
<path class="st0" d="M62.8,2.8c0.6-0.5,0.7-1.5,0.2-2.2l-0.1-0.1C62.6,0.2,62.2,0,61.7,0c-0.4,0-0.7,0.1-1,0.4l-9.8,8.3V7
	c0-1.7-1.4-3-3.1-3c-0.4,0-0.8,0.1-1.2,0.3l-22,9.5H12.8c-2.5,0-4.6,2-4.6,4.5v21.3c0,1.5,0.7,2.7,1.8,3.6l-9.4,8
	c-0.6,0.5-0.7,1.5-0.2,2.2l0.1,0.1C0.8,53.8,1.2,54,1.6,54s0.7-0.1,1-0.4l11.2-9.4h10.9l22,9.5c1.5,0.7,3.3,0,4-1.6
	c0.2-0.4,0.3-0.8,0.3-1.2V12.8L62.8,2.8z M47.9,7v4.2l-21.4,18V16.3L47.9,7z M11.3,39.6V18.4c0-0.8,0.7-1.5,1.5-1.5h10.7v15l-11,9.3
	C11.8,41,11.3,40.4,11.3,39.6z M17.4,41.2l6.1-5.1v5.1H17.4z M47.9,51l-21.4-9.3v-8.2l21.4-18V51z"/>
</svg>
