<svg xmlns="http://www.w3.org/2000/svg" width="73" height="63"><path fill="#FFF" d="M42.175 46.342c-1.521-.208-2.951-.624-4.29-1.248s-2.476-1.397-3.412-2.32l1.482-2.204c.13-.194.302-.354.517-.478.214-.123.445-.186.693-.186.285 0 .591.102.916.303.324.201.695.438 1.111.712.416.272.891.546 1.424.818.533.273 1.163.475 1.891.604l.723-8.716a37.234 37.234 0 01-2.74-.927 8.961 8.961 0 01-2.438-1.385 6.464 6.464 0 01-1.745-2.193c-.442-.884-.663-1.995-.663-3.335 0-.987.195-1.952.585-2.896a7.522 7.522 0 011.726-2.525c.761-.74 1.693-1.352 2.799-1.833 1.104-.48 2.372-.754 3.803-.818l.214-2.457c.026-.312.155-.592.39-.839s.539-.37.917-.37h1.774l-.332 3.821c1.391.222 2.588.614 3.588 1.18 1.002.566 1.865 1.2 2.594 1.901l-1.17 1.774c-.169.261-.344.456-.526.586s-.403.194-.663.194c-.195 0-.429-.062-.701-.186a18.127 18.127 0 01-.917-.448 18.038 18.038 0 00-1.142-.536 8.14 8.14 0 00-1.394-.448l-.683 8.073c.936.286 1.865.601 2.789.945.922.345 1.751.79 2.486 1.336.734.546 1.328 1.226 1.783 2.038s.684 1.829.684 3.051c0 1.21-.202 2.344-.605 3.403a8.232 8.232 0 01-1.773 2.808c-.781.812-1.736 1.476-2.867 1.989s-2.425.815-3.881.907l-.233 2.866c-.013.299-.14.575-.38.828a1.197 1.197 0 01-.907.381h-1.774l.347-4.17zM40.186 25.32c0 .494.085.93.254 1.307s.406.712.712 1.004c.306.293.669.553 1.092.78s.881.433 1.375.614l.604-7.215c-.729.091-1.346.244-1.853.458-.507.215-.923.478-1.248.79-.325.312-.562.66-.712 1.043a3.343 3.343 0 00-.224 1.219zm9.477 12.753c0-.493-.088-.926-.263-1.297-.176-.37-.424-.698-.742-.984s-.691-.533-1.121-.741a11.628 11.628 0 00-1.404-.565l-.662 7.917c1.377-.182 2.421-.646 3.129-1.395.709-.747 1.063-1.726 1.063-2.935z"/></svg>