<svg xmlns="http://www.w3.org/2000/svg" viewBox="0 0 114 50">
  <switch>
    <g>
      <path d="M111.3 42c0 3-2.4 5.4-5.4 5.4H8.1c-3 0-5.4-2.4-5.4-5.4V8c0-3 2.4-5.4 5.4-5.4H106c3 0 5.4 2.4 5.4 5.4v34z"/>
      <linearGradient id="a" gradientUnits="userSpaceOnUse" x1="9.6" y1="-8.19" x2="104.4" y2="58.19">
        <stop offset="0" stop-color="#ccac41"/>
        <stop offset=".21" stop-color="#ffff8b"/>
        <stop offset=".57" stop-color="#c29c2f"/>
        <stop offset=".92" stop-color="#d3b044"/>
        <stop offset="1" stop-color="#d8b54a"/>
      </linearGradient>
      <path fill="url(#a)" d="M114 8c0-4.4-3.6-8-8.1-8H8.1C3.6 0 0 3.6 0 8v34c0 4.4 3.6 8 8.1 8H106c4.4 0 8.1-3.6 8.1-8V8zm-2.7 34c0 3-2.4 5.4-5.4 5.4H8.1c-3 0-5.4-2.4-5.4-5.4V8c0-3 2.4-5.4 5.4-5.4H106c3 0 5.4 2.4 5.4 5.4v34z"/>
    </g>
  </switch>
</svg>
